<svg width="1191" height="842" viewBox="0 0 1191 842" fill="none" xmlns="http://www.w3.org/2000/svg">
<g clip-path="url(#clip0_2596_2665)">
<path d="M1191 0H0V842H1191V0Z" fill="#E6E6E6"/>
<path d="M85.9805 547.84V525.799H137.4V130.52H1092.39V661.58H396.78L398.19 585.65L240.52 571.969L203.49 656.81L86.0405 661.58L85.9805 547.84Z" fill="#CCCCCC" stroke="black" stroke-width="3" stroke-linecap="round" stroke-linejoin="round"/>
<path d="M235.08 604.94L214.91 665.72H86.04V539.96H179.64L212.3 192.39L197.88 190.04L199.67 141.08H467.16H1077V662.36H836.22V555.55H698.51C698.51 555.55 702.35 603.1 697.32 632.6C690.64 671.75 678.12 676.52 678.12 676.52H397.32V604.34" fill="white"/>
<path d="M235.08 604.94L214.91 665.72H86.04V539.96H179.64L212.3 192.39L197.88 190.04L199.67 141.08H467.16H1077V662.36H836.22V555.55H698.51C698.51 555.55 702.35 603.1 697.32 632.6C690.64 671.75 678.12 676.52 678.12 676.52H397.32V604.34" stroke="black" stroke-width="3" stroke-linecap="round" stroke-linejoin="round"/>
<path d="M993.79 142.69V195.32" stroke="black" stroke-width="2.83" stroke-linecap="round" stroke-linejoin="round"/>
<path d="M928.2 188.12V254.12H1077" stroke="black" stroke-width="2.83" stroke-linecap="round" stroke-linejoin="round"/>
<path d="M497.88 556.22H396.78V587.72H497.88V556.22Z" fill="#CCCCCC" stroke="black" stroke-width="3" stroke-linecap="round" stroke-linejoin="round"/>
<path d="M247.15 556.15L211.69 661.64H149.4" stroke="black" stroke-width="3" stroke-linecap="round" stroke-linejoin="round"/>
<path d="M475.02 346.28H461.16V361.1H475.02V346.28Z" stroke="black" stroke-width="5.67" stroke-linecap="round" stroke-linejoin="round"/>
<path d="M783.9 346.28H769.56V361.1H783.9V346.28Z" stroke="black" stroke-width="5.67" stroke-linecap="round" stroke-linejoin="round"/>
<path d="M86.04 556.76H200.91C200.91 556.76 189.15 577.52 166.68 580.43C144.21 583.34 96.87 585.85 86.04 595.16V556.76Z" fill="#CCCCCC" stroke="black" stroke-width="3" stroke-linecap="round" stroke-linejoin="round"/>
<path d="M357.42 600.39H281.43V610.09H357.42V600.39Z" fill="#E6E6E6"/>
<path d="M283.92 604.34H231.84" stroke="black" stroke-width="3" stroke-linecap="round" stroke-linejoin="round"/>
<path d="M396.78 604.34H355.35" stroke="black" stroke-width="3" stroke-linecap="round" stroke-linejoin="round"/>
<path d="M357.42 600.39H279.83" stroke="black" stroke-width="3" stroke-linecap="round" stroke-linejoin="round"/>
<path d="M698.51 555.55H836.219V713.72H613.77C613.77 713.72 693.06 685.96 697.32 632.6C701.58 579.24 698.51 555.55 698.51 555.55Z" fill="#CCCCCC" stroke="black" stroke-width="3" stroke-linecap="round" stroke-linejoin="round"/>
<path d="M467.16 121.4H410.52V187.2H467.16V121.4Z" fill="#CCCCCC" stroke="black" stroke-width="3" stroke-linecap="round" stroke-linejoin="round"/>
<path d="M467.16 169H410.52" stroke="black" stroke-width="3" stroke-linecap="round" stroke-linejoin="round"/>
<path d="M467.16 155.99H410.52" stroke="black" stroke-width="3" stroke-linecap="round" stroke-linejoin="round"/>
<path d="M368.2 178.04H252.99V201.46H368.2V178.04Z" fill="#CCCCCC"/>
<path d="M558.841 159.29H485.141V182.71H558.841V159.29Z" fill="#CCCCCC"/>
<path d="M197.15 542.78L205.66 475.23L228.9 478.1L220.39 545.64L197.15 542.78Z" fill="#CCCCCC"/>
<path d="M297.42 630.931C296.88 630.251 296.46 629.811 295.73 629.341C297.92 627.921 299.9 626.111 301.27 623.921C302.72 621.611 303.34 619.401 303.68 616.731L305.02 617.011C304.98 616.391 304.98 615.751 304.96 615.141H300.68V613.091H307.2C307.18 613.891 307.16 614.961 307.16 615.901C307.16 618.871 307.76 621.541 309.41 624.031C310.83 626.181 312.7 627.921 314.89 629.271C314.21 629.711 313.61 630.271 313.18 630.941C309.47 628.431 306.15 624.321 305.33 619.841C304.15 624.501 301.32 628.171 297.44 630.941L297.42 630.931Z" fill="black"/>
<path d="M323.611 628.261V629.421H321.461V614.551H336.921V629.401H334.771V628.261H323.611ZM334.771 616.461H323.611V626.341H334.771V616.461Z" fill="black"/>
<path d="M203.49 595.41H113.4V601.54H203.49V595.41Z" fill="#CCCCCC"/>
<path d="M495.18 592.101H398.19V598.231H495.18V592.101Z" fill="#CCCCCC"/>
<path d="M495.18 546.311H398.19V552.441H495.18V546.311Z" fill="#CCCCCC"/>
<path d="M485.141 146.731V155.101L862.401 155.101V146.731L485.141 146.731Z" fill="#CCCCCC"/>
<path d="M272.821 235.865L266.646 235.12L237.066 480.272L243.241 481.017L272.821 235.865Z" fill="#CCCCCC"/>
<path d="M1070.86 271.271H1064.64V546.331H1070.86V271.271Z" fill="#CCCCCC"/>
<path d="M245.497 361.421L221.183 358.328L206.888 470.693L231.202 473.786L245.497 361.421Z" fill="#CCCCCC"/>
<path d="M260.718 241.818L236.404 238.725L222.11 351.089L246.424 354.182L260.718 241.818Z" fill="#CCCCCC"/>
<path d="M316.99 639.33L352.44 674.3H338.84V703.43H295.62V674.3H282.03L316.99 639.33Z" fill="white"/>
<path d="M652.421 300.957L617.342 265.877L582.262 300.957L617.342 336.036L652.421 300.957Z" fill="#CCCCCC"/>
<path d="M414.354 462.322L379.274 427.242L344.195 462.322L379.274 497.401L414.354 462.322Z" fill="#CCCCCC"/>
<path d="M1003.43 560.896L968.351 525.816L933.271 560.896L968.351 595.976L1003.43 560.896Z" fill="#CCCCCC"/>
<path d="M737.257 488.918L702.178 453.839L667.098 488.918L702.178 523.998L737.257 488.918Z" fill="#CCCCCC"/>
<path d="M898.33 453.858L863.25 418.778L828.17 453.858L863.25 488.937L898.33 453.858Z" fill="#CCCCCC"/>
<path d="M506.737 353.698L471.657 318.618L436.578 353.698L471.657 388.777L506.737 353.698Z" fill="#B1B1B1"/>
<path d="M598.331 442.972L563.251 407.893L528.171 442.972L563.251 478.052L598.331 442.972Z" fill="#CCCCCC"/>
<path d="M810.227 353.698L775.147 318.618L740.068 353.698L775.148 388.777L810.227 353.698Z" fill="#B1B1B1"/>
<path d="M1012.77 332.908L977.688 297.828L942.609 332.908L977.688 367.987L1012.77 332.908Z" fill="#CCCCCC"/>
</g>
<defs>
<clipPath id="clip0_2596_2665">
<rect width="1191" height="842" fill="white"/>
</clipPath>
</defs>
</svg>
