<svg width="43" height="43" viewBox="0 0 43 43" fill="none" xmlns="http://www.w3.org/2000/svg">
<path d="M21.5 0C9.62598 0 0 9.66134 0 21.579C0 31.6995 6.94192 40.1904 16.3065 42.5227V28.1735H11.8732V21.579H16.3065V18.7409C16.3065 11.3963 19.6183 7.99199 26.8028 7.99199C28.1641 7.99199 30.5145 8.26043 31.476 8.52801V14.5028C30.9686 14.4484 30.0871 14.4217 28.9923 14.4217C25.4663 14.4217 24.1049 15.7621 24.1049 19.2467V21.5773H31.1277L29.9237 28.1718H24.1092V43C34.7509 41.7096 43 32.6119 43 21.579C43 9.66134 33.374 0 21.5 0Z" fill="#008774"/>
</svg>
