<svg width="455" height="86" viewBox="0 0 455 86" fill="none" xmlns="http://www.w3.org/2000/svg">
<path d="M176.461 32.7461C170.126 32.7461 164.167 35.2189 159.674 39.7113C155.182 44.2038 152.709 50.163 152.709 56.4985C152.709 61.8741 154.567 67.1422 157.931 71.3429C161.21 75.4283 165.802 78.3465 170.855 79.5752L171.009 79.6136C172.668 80.0053 174.388 80.2203 176.124 80.2433H176.331V77.3021V38.8128H170.855V76.5265C161.894 74.0153 155.65 65.8214 155.65 56.4909C155.65 47.1604 162.009 38.8052 171.109 36.3861C172.737 35.9484 174.426 35.718 176.131 35.695C176.239 35.695 176.346 35.695 176.454 35.695C178.642 35.695 180.793 36.0252 182.835 36.6856C184.847 37.3307 186.744 38.283 188.487 39.527V75.6894H191.429V38.0603L190.853 37.6225C186.69 34.4432 181.714 32.7615 176.446 32.7615L176.461 32.7461Z" fill="#FFFCE4"/>
<path d="M60.5156 85.1655H65.9911V46.9374V41.9841V16.5269H60.5156V85.1655Z" fill="#FFFCE4"/>
<path d="M90.8631 52.205C90.8631 44.1877 84.3355 37.6602 76.3182 37.6602C73.3617 37.6602 70.6047 38.551 68.3086 40.0715V43.8191C70.3897 41.8224 73.2157 40.6014 76.3182 40.6014C82.7152 40.6014 87.9142 45.808 87.9142 52.1973V85.1574H99.2259V82.2162H90.8631V52.205Z" fill="#FFFCE4"/>
<path d="M37.5077 11.3813H34.5665V33.7899H24.2837V31.3402V11.3813H5.2695V14.3226H21.3348V75.374C17.5259 74.5139 14.0471 72.5172 11.3439 69.599C7.98033 65.9744 6.12959 61.2592 6.12959 56.3213C6.12959 51.3835 7.98033 46.6683 11.3439 43.0436C13.4865 40.7321 16.1205 38.9966 19.0157 37.9445V32.2003C8.38734 35.1338 0.646484 44.902 0.646484 56.3213C0.646484 69.4839 10.9292 80.4501 24.0534 81.2871L24.2761 81.3025V75.8117V36.831V36.7311H34.5588V81.2871H37.5V36.7311H44.8876V33.7899H37.5V11.3813H37.5077Z" fill="#FFFCE4"/>
<path d="M149.407 12.4334V9.49219H134.608H129.133V35.6099V75.6811C120.171 73.17 113.935 64.9683 113.935 55.6455C113.935 47.1444 119.111 39.5802 126.814 36.4086V33.26C122.682 34.7344 118.988 37.3531 116.216 40.8012C112.853 44.9942 110.994 50.2699 110.994 55.6455C110.994 61.0211 112.845 66.2892 116.216 70.4822C119.495 74.5753 124.08 77.4935 129.133 78.7222L129.294 78.7606C130.961 79.1522 132.681 79.3672 134.409 79.3903H134.616V76.4491V12.4334H149.414H149.407Z" fill="#FFFCE4"/>
<path d="M115.118 9.48486H96.1191V12.4338H104.144V34.8346H107.093V12.4338H115.118V9.48486Z" fill="#FFFCE4"/>
<path d="M342.951 12.3491H325.949V15.2903H342.951V12.3491Z" fill="#FFFCE4"/>
<path d="M385.763 22.9082H373.445V28.3836H385.763V22.9082Z" fill="#FFFCE4"/>
<path d="M371.125 28.3838V22.9083V12.3491H368.184V22.9083H353.094V28.3838H368.184V76.7718H353.539V82.2549H385.77V76.7718H371.125V28.3838Z" fill="#FFFCE4"/>
<path d="M354.769 65.1378V62.1966H344.217V24.1758H322.377V27.117H338.742V35.1727C331.546 36.0405 325.948 42.1763 325.948 49.6023V51.0768V62.1889V65.1301H328.889H338.734V82.2476H344.21V65.1301H354.761L354.769 65.1378ZM328.889 62.1889V49.6023C328.889 43.8044 333.167 38.9817 338.734 38.137V62.1889H328.889Z" fill="#FFFCE4"/>
<path d="M447.697 25.2274V22.2861V21.019H411.381V26.4945H447.697V25.2274Z" fill="#FFFCE4"/>
<path d="M447.689 31.9087H411.381V37.3841H447.689V31.9087Z" fill="#FFFCE4"/>
<path d="M409.062 13.4012H447.697V10.46H409.062H404.854H403.586V44.0651H396.852V47.0063H403.586V80.3657H409.062V47.0063H455V44.0651H409.062V13.4012Z" fill="#FFFCE4"/>
<path d="M446.56 63.8705C446.56 55.8532 440.041 49.3257 432.016 49.3257V52.2669C438.413 52.2669 443.612 57.4659 443.612 63.8628V80.3582H454.908V77.417H446.553V63.8628L446.56 63.8705Z" fill="#FFFCE4"/>
<path d="M255.781 70.6592H270.441L243.486 0.753418H228.826L255.781 70.6592Z" fill="#FCD133"/>
<path d="M201.463 70.6592H205.034L228.825 0.753418H225.246L201.463 70.6592Z" fill="#FCD133"/>
<path d="M239.01 50.385V47.4131H211.218V50.385H239.01Z" fill="#FCD133"/>
<path d="M299.174 17.7554H286.695V79.5517H299.174V17.7554Z" fill="#FCD133"/>
<path d="M306.834 18.2312V15.2593H279.042V18.2312H306.834Z" fill="#FCD133"/>
<path d="M306.834 85.1653V82.1934H279.042V85.1653H306.834Z" fill="#FCD133"/>
</svg>
