<svg width="461" height="85" viewBox="0 0 461 85" fill="none" xmlns="http://www.w3.org/2000/svg">
<path d="M176.461 28.7461C170.126 28.7461 164.167 31.2189 159.674 35.7113C155.182 40.2038 152.709 46.163 152.709 52.4985C152.709 57.8741 154.567 63.1422 157.931 67.3429C161.21 71.4283 165.802 74.3465 170.855 75.5752L171.009 75.6136C172.668 76.0053 174.388 76.2203 176.124 76.2433H176.331V73.3021V34.8128H170.855V72.5265C161.894 70.0153 155.65 61.8214 155.65 52.4909C155.65 43.1604 162.009 34.8052 171.109 32.3861C172.737 31.9484 174.426 31.718 176.131 31.695C176.239 31.695 176.346 31.695 176.454 31.695C178.642 31.695 180.793 32.0252 182.835 32.6856C184.847 33.3307 186.744 34.283 188.487 35.527V71.6894H191.429V34.0603L190.853 33.6225C186.69 30.4432 181.714 28.7615 176.446 28.7615L176.461 28.7461Z" fill="#FFFCE4"/>
<path d="M60.5156 81.1655H65.9911V42.9374V37.9841V12.5269H60.5156V81.1655Z" fill="#FFFCE4"/>
<path d="M90.8631 48.205C90.8631 40.1877 84.3355 33.6602 76.3182 33.6602C73.3617 33.6602 70.6047 34.551 68.3086 36.0715V39.8191C70.3897 37.8224 73.2157 36.6014 76.3182 36.6014C82.7152 36.6014 87.9142 41.808 87.9142 48.1973V81.1574H99.2259V78.2162H90.8631V48.205Z" fill="#FFFCE4"/>
<path d="M37.5077 7.38135H34.5665V29.7899H24.2837V27.3402V7.38135H5.2695V10.3226H21.3348V71.374C17.5259 70.5139 14.0471 68.5172 11.3439 65.599C7.98033 61.9744 6.12959 57.2592 6.12959 52.3213C6.12959 47.3835 7.98033 42.6683 11.3439 39.0436C13.4865 36.7321 16.1205 34.9966 19.0157 33.9445V28.2003C8.38734 31.1338 0.646484 40.902 0.646484 52.3213C0.646484 65.4839 10.9292 76.4501 24.0534 77.2871L24.2761 77.3025V71.8117V32.831V32.7311H34.5588V77.2871H37.5V32.7311H44.8876V29.7899H37.5V7.38135H37.5077Z" fill="#FFFCE4"/>
<path d="M149.407 8.43341V5.49219H134.608H129.133V31.6099V71.6811C120.171 69.17 113.935 60.9683 113.935 51.6455C113.935 43.1444 119.111 35.5802 126.814 32.4086V29.26C122.682 30.7344 118.988 33.3531 116.216 36.8012C112.853 40.9942 110.994 46.2699 110.994 51.6455C110.994 57.0211 112.845 62.2892 116.216 66.4822C119.495 70.5753 124.08 73.4935 129.133 74.7222L129.294 74.7606C130.961 75.1522 132.681 75.3672 134.409 75.3903H134.616V72.4491V8.43341H149.414H149.407Z" fill="#FFFCE4"/>
<path d="M115.118 5.48486H96.1191V8.43376H104.144V30.8346H107.093V8.43376H115.118V5.48486Z" fill="#FFFCE4"/>
<path d="M227.951 8.34912H210.949V11.2903H227.951V8.34912Z" fill="#FFFCE4"/>
<path d="M270.763 18.9082H258.445V24.3836H270.763V18.9082Z" fill="#FFFCE4"/>
<path d="M256.123 24.3838V18.9083V8.34912H253.182V18.9083H238.092V24.3838H253.182V72.7718H238.537V78.2549H270.768V72.7718H256.123V24.3838Z" fill="#FFFCE4"/>
<path d="M239.769 61.1378V58.1966H229.217V20.1758H207.377V23.117H223.742V31.1727C216.546 32.0405 210.948 38.1763 210.948 45.6023V47.0768V58.1889V61.1301H213.889H223.734V78.2476H229.21V61.1301H239.761L239.769 61.1378ZM213.889 58.1889V45.6023C213.889 39.8044 218.167 34.9817 223.734 34.137V58.1889H213.889Z" fill="#FFFCE4"/>
<path d="M332.697 21.2274V18.2861V17.019H296.381V22.4945H332.697V21.2274Z" fill="#FFFCE4"/>
<path d="M332.689 27.9087H296.381V33.3841H332.689V27.9087Z" fill="#FFFCE4"/>
<path d="M294.062 9.40118H332.697V6.45996H294.062H289.854H288.586V40.0651H281.852V43.0063H288.586V76.3657H294.062V43.0063H340V40.0651H294.062V9.40118Z" fill="#FFFCE4"/>
<path d="M331.56 59.8705C331.56 51.8532 325.041 45.3257 317.016 45.3257V48.2669C323.413 48.2669 328.612 53.4659 328.612 59.8628V76.3582H339.908V73.417H331.553V59.8628L331.56 59.8705Z" fill="#FFFCE4"/>
<path d="M409.318 69.9058H423.978L397.023 0H382.363L409.318 69.9058Z" fill="#FCD133"/>
<path d="M355 69.9058H358.571L382.362 0H378.783L355 69.9058Z" fill="#FCD133"/>
<path d="M392.547 49.6316V46.6597H364.755V49.6316H392.547Z" fill="#FCD133"/>
<path d="M452.711 17.002H440.232V78.7983H452.711V17.002Z" fill="#FCD133"/>
<path d="M460.371 17.4778V14.5059H432.579V17.4778H460.371Z" fill="#FCD133"/>
<path d="M460.371 84.4119V81.4399H432.579V84.4119H460.371Z" fill="#FCD133"/>
</svg>
