<svg width="51" height="49" viewBox="0 0 51 49" fill="none" xmlns="http://www.w3.org/2000/svg">
<g clip-path="url(#clip0_2269_1366)">
<path d="M7.77002 19.5C7.77002 19.5 4.31 40.17 0 45.82C0 45.82 4.58004 47.82 7.67004 47.46C14.67 46.7 24.67 38.11 28.59 38.86C32.51 39.61 36.59 48.35 41.39 48.49C46.19 48.63 43.65 48.77 50.39 47C43.26 35.71 43.74 13 43.74 13L7.77002 19.5Z" fill="#008674"/>
<path d="M25.3801 46.2999C15.9101 46.2999 8.83008 36.7499 8.83008 28.2099C8.83008 17.7399 15.8301 10.1299 25.3801 10.1299C34.9301 10.1299 42.1301 17.8999 42.1301 28.2099C42.1301 37.8499 34.3001 46.2999 25.3801 46.2999Z" fill="#F3B2C1"/>
<path d="M25.3795 11.1898C34.4695 11.1898 41.0695 18.3498 41.0695 28.1898C41.0695 37.2598 33.7395 45.1898 25.3795 45.1898C18.0695 45.1898 9.88953 37.9098 9.88953 28.1898C9.88953 18.4698 16.4095 11.1898 25.3795 11.1898ZM25.3795 9.06982C14.8095 9.06982 7.76953 17.6398 7.76953 28.2098C7.76953 38.7798 16.5795 47.3598 25.3795 47.3598C34.4795 47.3598 43.1896 38.7898 43.1896 28.2098C43.1896 17.6298 35.9595 9.06982 25.3795 9.06982Z" fill="#F3B2C1"/>
<path d="M37.7 20.4601C30.39 16.9101 30.04 12.4601 30.04 12.4601C27.99 15.4601 17.42 19.7301 14.27 20.3301C14.27 18.2301 21.04 15.7501 21.04 13.7701C19.51 14.9801 17.04 18.8701 15.91 19.3501C12.39 20.8801 7.77002 24.3001 7.38002 35.0901C7.38002 35.0901 5.47001 20.8301 7.00001 15.3301C9.08001 7.89009 15.33 1.1001 25.7 1.1001C42.23 1.1001 47.5001 15.9001 43.1901 35.5601C42.4301 27.2001 41.67 22.3901 37.7 20.4601Z" fill="#008674" stroke="#008674" stroke-width="2.13" stroke-linecap="round" stroke-linejoin="round"/>
<path d="M17.4304 26.6801C18.2754 26.6801 18.9604 25.9951 18.9604 25.1501C18.9604 24.3051 18.2754 23.6201 17.4304 23.6201C16.5854 23.6201 15.9004 24.3051 15.9004 25.1501C15.9004 25.9951 16.5854 26.6801 17.4304 26.6801Z" fill="#008674"/>
<path d="M32.9402 26.6801C33.7852 26.6801 34.4702 25.9951 34.4702 25.1501C34.4702 24.3051 33.7852 23.6201 32.9402 23.6201C32.0952 23.6201 31.4102 24.3051 31.4102 25.1501C31.4102 25.9951 32.0952 26.6801 32.9402 26.6801Z" fill="#008674"/>
<path d="M25.7703 30.23C25.7703 30.23 23.2803 31.28 23.2803 32.62C23.2803 33.96 25.4802 33.77 25.4802 33.77" stroke="#008674" stroke-width="2.13" stroke-linecap="round" stroke-linejoin="round"/>
<path d="M25.1898 41.33C26.5098 41.33 27.5798 40.645 27.5798 39.8C27.5798 38.955 26.5098 38.27 25.1898 38.27C23.8698 38.27 22.7998 38.955 22.7998 39.8C22.7998 40.645 23.8698 41.33 25.1898 41.33Z" stroke="#008674" stroke-width="1.7" stroke-linecap="round" stroke-linejoin="round"/>
</g>
<defs>
<clipPath id="clip0_2269_1366">
<rect width="50.38" height="48.58" fill="white"/>
</clipPath>
</defs>
</svg>
