<svg width="49" height="50" viewBox="0 0 49 50" fill="none" xmlns="http://www.w3.org/2000/svg">
<path d="M24.459 48.69C20.5083 48.6799 16.6691 47.379 13.5261 44.9852C10.3832 42.5914 8.1087 39.236 7.04907 35.43C6.98733 35.2104 6.85696 35.0162 6.67706 34.8759C6.49716 34.7356 6.27714 34.6564 6.04907 34.65H5.87903C5.69935 34.6653 5.51873 34.6653 5.33905 34.65C2.96905 34.65 1.03906 32.12 1.03906 29.01C1.03906 25.9 2.96905 23.37 5.33905 23.37C5.78611 23.3718 6.22822 23.4636 6.63904 23.64C6.7678 23.6987 6.90758 23.7293 7.04907 23.73C7.25921 23.7348 7.46608 23.6776 7.64392 23.5656C7.82176 23.4536 7.96269 23.2916 8.04907 23.1C9.47553 19.9396 11.7811 17.2564 14.6908 15.3704C17.6005 13.4845 20.9913 12.4756 24.4587 12.464C27.9261 12.4524 31.3235 13.4386 34.2457 15.305C37.1679 17.1715 39.4915 19.8392 40.939 22.99C41.0258 23.1806 41.1672 23.3411 41.3452 23.4515C41.5231 23.5618 41.7297 23.617 41.939 23.61C42.055 23.6099 42.1701 23.5896 42.2791 23.55C42.617 23.4337 42.9716 23.3729 43.329 23.37C45.699 23.37 47.6291 25.9 47.6291 29.01C47.6291 32.12 45.699 34.65 43.329 34.65H43.059C42.8195 34.6475 42.5853 34.7206 42.3896 34.8588C42.1939 34.9971 42.0468 35.1934 41.9691 35.42C40.9037 39.2426 38.6142 42.6105 35.4515 45.0074C32.2888 47.4042 28.4274 48.6979 24.459 48.69Z" fill="#F3B2C1"/>
<path d="M24.46 13.5801C27.7115 13.59 30.8925 14.5278 33.6293 16.2833C36.3662 18.0388 38.5451 20.539 39.91 23.4901C40.0789 23.8602 40.3506 24.1738 40.6928 24.3937C41.035 24.6136 41.4333 24.7303 41.84 24.7301C42.0714 24.733 42.3014 24.6958 42.52 24.6201C42.7489 24.5431 42.9885 24.5026 43.23 24.5001C44.98 24.5001 46.46 26.5901 46.46 29.0701C46.46 31.5501 44.9801 33.6501 43.2401 33.6501H42.89C42.4347 33.6607 41.9949 33.817 41.6349 34.0959C41.275 34.3749 41.0139 34.7619 40.89 35.2001C39.8988 38.7845 37.7594 41.945 34.7999 44.1972C31.8404 46.4494 28.224 47.6689 24.505 47.6689C20.786 47.6689 17.1697 46.4494 14.2101 44.1972C11.2506 41.945 9.11126 38.7845 8.12 35.2001C7.99404 34.7527 7.72587 34.3585 7.35602 34.0771C6.98617 33.7956 6.53476 33.6422 6.07001 33.6401H5.72003C5.60034 33.6523 5.47974 33.6523 5.36005 33.6401C3.61005 33.6401 2.13 31.5401 2.13 29.0601C2.13 26.5801 3.61005 24.4901 5.36005 24.4901C5.66546 24.4929 5.96749 24.554 6.25 24.6701C6.50827 24.784 6.78774 24.8419 7.07001 24.8401C7.47902 24.8389 7.87914 24.7206 8.22296 24.499C8.56678 24.2775 8.83991 23.962 9.01001 23.5901C10.3573 20.6084 12.5364 18.0789 15.2858 16.305C18.0352 14.5312 21.2381 13.5885 24.51 13.5901M24.51 11.4701C20.828 11.4706 17.2242 12.5331 14.1309 14.5303C11.0375 16.5275 8.58592 19.3746 7.07001 22.7301C6.52854 22.5022 5.94751 22.3833 5.36005 22.3801C2.36005 22.3801 0 25.3801 0 29.0801C0 32.7801 2.40005 35.7801 5.36005 35.7801C5.59799 35.7804 5.83549 35.7603 6.07001 35.7201C7.18729 39.7512 9.59507 43.305 12.9246 45.8372C16.2542 48.3694 20.3219 49.7405 24.505 49.7405C28.6881 49.7405 32.7558 48.3694 36.0854 45.8372C39.4149 43.305 41.8227 39.7512 42.94 35.7201H43.28C46.28 35.7201 48.6401 32.7201 48.6401 29.0201C48.6401 25.3201 46.24 22.3201 43.28 22.3201C42.8077 22.3257 42.339 22.4033 41.89 22.5501C40.3509 19.2272 37.8905 16.4158 34.8008 14.4499C31.7111 12.4841 28.1221 11.4464 24.46 11.4601L24.51 11.4701Z" fill="#F3B2C1"/>
<path d="M36.8021 21.66C29.4021 18.06 29.0521 13.53 29.0521 13.53C25.4421 18.83 18.522 18.16 13.952 19.46C6.75203 21.52 7.56203 22.63 5.95203 25.79C5.95203 25.79 4.83203 25.58 4.83203 21C4.83203 13.19 7.22205 2 24.662 2C42.482 2 44.542 15.7 43.122 26.52C41.542 24.01 40.8121 23.61 36.8021 21.66Z" fill="#008674"/>
<path d="M36.8021 21.66C29.4021 18.06 29.0521 13.53 29.0521 13.53C25.4421 18.83 18.522 18.16 13.952 19.46C6.75203 21.52 7.56203 22.63 5.95203 25.79C5.95203 25.79 4.83203 25.58 4.83203 21C4.83203 13.19 7.22205 2 24.662 2C42.482 2 44.542 15.7 43.122 26.52C41.542 24.01 40.8121 23.61 36.8021 21.66Z" stroke="#008674" stroke-width="2.15" stroke-linecap="round" stroke-linejoin="round"/>
<path d="M16.4714 29.0698C17.3164 29.0698 18.0014 28.3848 18.0014 27.5398C18.0014 26.6948 17.3164 26.0098 16.4714 26.0098C15.6264 26.0098 14.9414 26.6948 14.9414 27.5398C14.9414 28.3848 15.6264 29.0698 16.4714 29.0698Z" fill="#008674"/>
<path d="M31.9792 29.0698C32.8242 29.0698 33.5092 28.3848 33.5092 27.5398C33.5092 26.6948 32.8242 26.0098 31.9792 26.0098C31.1342 26.0098 30.4492 26.6948 30.4492 27.5398C30.4492 28.3848 31.1342 29.0698 31.9792 29.0698Z" fill="#008674"/>
<path d="M24.8004 32.6201C24.8004 32.6201 22.3203 33.6701 22.3203 35.0101C22.3203 36.3501 24.5203 36.1601 24.5203 36.1601" stroke="#008674" stroke-width="2.13" stroke-linecap="round" stroke-linejoin="round"/>
<path d="M24.2298 43.7202C25.5498 43.7202 26.6198 43.0352 26.6198 42.1902C26.6198 41.3452 25.5498 40.6602 24.2298 40.6602C22.9099 40.6602 21.8398 41.3452 21.8398 42.1902C21.8398 43.0352 22.9099 43.7202 24.2298 43.7202Z" stroke="#008674" stroke-width="1.7" stroke-linecap="round" stroke-linejoin="round"/>
</svg>
