<svg width="49" height="50" viewBox="0 0 49 50" fill="none" xmlns="http://www.w3.org/2000/svg">
<path d="M8.74036 29.5801C8.74036 29.5801 7.16035 40.4901 3.61035 44.1301C3.61035 44.1301 7.4203 45.5701 9.9303 45.1901C12.4403 44.8101 24.1104 42.3101 27.3604 42.7901C30.6104 43.2701 33.7603 45.7901 37.7303 45.8601C41.7003 45.9301 39.5904 46.0401 45.1504 44.8601C39.2704 37.5801 39.8403 26.1001 39.8403 26.1001L8.74036 29.5801Z" fill="#008674"/>
<path d="M24.7804 48.5196C20.8297 48.5095 16.9904 47.2086 13.8474 44.8148C10.7044 42.421 8.42999 39.0656 7.37036 35.2596C7.31004 35.0391 7.18009 34.8441 6.99988 34.7035C6.81967 34.563 6.59886 34.4844 6.37036 34.4796H6.19031C6.01395 34.4944 5.83676 34.4944 5.6604 34.4796C3.2904 34.4796 1.36035 31.9496 1.36035 28.8396C1.36035 25.7296 3.2904 23.1996 5.6604 23.1996C6.10424 23.2014 6.54301 23.2932 6.95032 23.4696C7.0753 23.5317 7.21199 23.567 7.35144 23.5732C7.49089 23.5794 7.63002 23.5563 7.76001 23.5054C7.89 23.4546 8.00798 23.377 8.1062 23.2779C8.20443 23.1787 8.28071 23.0601 8.33032 22.9296C9.75678 19.7692 12.0624 17.086 14.972 15.2C17.8817 13.3141 21.2726 12.3052 24.74 12.2936C28.2074 12.282 31.6049 13.2682 34.5271 15.1346C37.4493 17.0011 39.7728 19.6688 41.2203 22.8196C41.3071 23.0102 41.4485 23.1707 41.6265 23.2811C41.8044 23.3914 42.0111 23.4466 42.2203 23.4396C42.3363 23.4394 42.4513 23.4191 42.5603 23.3796C42.8824 23.2685 43.2197 23.2078 43.5603 23.1996C45.9303 23.1996 47.8604 25.7296 47.8604 28.8396C47.8604 31.9496 45.9303 34.4796 43.5603 34.4796H43.2904C43.0509 34.4771 42.8165 34.5502 42.6208 34.6884C42.4252 34.8266 42.2781 35.023 42.2003 35.2496C41.1391 39.0574 38.8631 42.4144 35.7186 44.8097C32.5741 47.2051 28.7333 48.5078 24.7804 48.5196Z" fill="#F3B2C1"/>
<path d="M24.7804 13.4097C28.0321 13.4185 31.2136 14.3558 33.9507 16.1114C36.6877 17.867 38.8664 20.3679 40.2303 23.3197C40.4009 23.6906 40.6744 24.0046 41.0183 24.2245C41.3622 24.4443 41.7622 24.5607 42.1704 24.5597C42.3984 24.5615 42.6249 24.5243 42.8403 24.4497C43.0692 24.3727 43.3088 24.3322 43.5503 24.3297C45.3003 24.3297 46.7904 26.4198 46.7904 28.8997C46.7904 31.3797 45.3003 33.4797 43.5603 33.4797H43.2103C42.7551 33.4904 42.3152 33.6466 41.9552 33.9256C41.5952 34.2045 41.3342 34.5915 41.2103 35.0297C40.2191 38.6142 38.0798 41.7747 35.1202 44.0269C32.1607 46.279 28.5443 47.4986 24.8253 47.4986C21.1063 47.4986 17.49 46.279 14.5305 44.0269C11.571 41.7747 9.43157 38.6142 8.44031 35.0297C8.31967 34.5889 8.05976 34.1988 7.69934 33.9176C7.33892 33.6365 6.8973 33.4794 6.44031 33.4697C6.32386 33.4595 6.20677 33.4595 6.09033 33.4697C5.97061 33.4814 5.85006 33.4814 5.73035 33.4697C3.97035 33.4697 2.49036 31.3697 2.49036 28.8897C2.49036 26.4097 3.97035 24.3197 5.73035 24.3197C6.03253 24.3226 6.33132 24.3837 6.61035 24.4997C6.86863 24.6136 7.14803 24.6716 7.4303 24.6697C7.83958 24.6698 8.2403 24.5519 8.58435 24.3302C8.9284 24.1086 9.20127 23.7925 9.37036 23.4197C10.7237 20.4426 12.9043 17.9172 15.6523 16.1443C18.4004 14.3713 21.6001 13.4256 24.8704 13.4197M24.8704 11.2997C21.1895 11.2997 17.5868 12.3621 14.495 14.3595C11.4032 16.3569 8.95348 19.2043 7.44031 22.5597C6.89831 22.3336 6.31762 22.2147 5.73035 22.2097C2.73035 22.2097 0.360352 25.2097 0.360352 28.9097C0.360352 32.6097 2.76035 35.6097 5.73035 35.6097C5.96499 35.6103 6.19918 35.5902 6.4303 35.5497C7.54758 39.5808 9.95536 43.1346 13.2849 45.6668C16.6145 48.1991 20.6823 49.5702 24.8654 49.5702C29.0484 49.5702 33.1163 48.1991 36.4458 45.6668C39.7753 43.1346 42.183 39.5808 43.3003 35.5497H43.6404C46.6404 35.5497 49.0004 32.5497 49.0004 28.8497C49.0004 25.1497 46.6004 22.1497 43.6404 22.1497C43.1713 22.1547 42.7057 22.2322 42.2604 22.3797C40.7294 19.0552 38.2778 16.2389 35.1958 14.2646C32.1138 12.2903 28.5305 11.2406 24.8704 11.2397V11.2997Z" fill="#F3B2C1"/>
<path d="M37.1003 21.4095C29.7903 17.8495 29.4403 13.3595 29.4403 13.3595C27.4403 16.3595 22.2503 19.3595 19.1003 19.9695C19.1003 17.8595 20.4403 16.6495 20.4403 14.6695C18.9103 15.8895 15.6203 18.7495 14.5103 19.2395C11.0003 20.7595 7.23033 21.5595 5.64033 24.6895C4.85304 21.3701 4.92181 17.9051 5.84028 14.6195C7.91028 7.17951 13.8403 1.99951 25.1003 1.99951C40.6803 1.99951 44.7603 15.5495 43.3603 26.2595C41.7903 23.7295 41.0703 23.3295 37.1003 21.4095Z" fill="#008674" stroke="#008674" stroke-width="2.13" stroke-linecap="round" stroke-linejoin="round"/>
<path d="M16.8298 28.9003C17.6748 28.9003 18.3598 28.2153 18.3598 27.3703C18.3598 26.5253 17.6748 25.8403 16.8298 25.8403C15.9848 25.8403 15.2998 26.5253 15.2998 27.3703C15.2998 28.2153 15.9848 28.9003 16.8298 28.9003Z" fill="#008674"/>
<path d="M32.3396 28.9003C33.1846 28.9003 33.8696 28.2153 33.8696 27.3703C33.8696 26.5253 33.1846 25.8403 32.3396 25.8403C31.4946 25.8403 30.8096 26.5253 30.8096 27.3703C30.8096 28.2153 31.4946 28.9003 32.3396 28.9003Z" fill="#008674"/>
<path d="M25.1708 32.4497C25.1708 32.4497 22.6807 33.4997 22.6807 34.8397C22.6807 36.1797 24.8807 35.9897 24.8807 35.9897" stroke="#008674" stroke-width="2.13" stroke-linecap="round" stroke-linejoin="round"/>
<path d="M24.5902 43.5497C25.9102 43.5497 26.9802 42.8647 26.9802 42.0197C26.9802 41.1748 25.9102 40.4897 24.5902 40.4897C23.2702 40.4897 22.2002 41.1748 22.2002 42.0197C22.2002 42.8647 23.2702 43.5497 24.5902 43.5497Z" stroke="#008674" stroke-width="1.7" stroke-linecap="round" stroke-linejoin="round"/>
</svg>
